<svg xmlns="http://www.w3.org/2000/svg"  viewBox="0 0 48 48" width="48px" height="48px"><path fill="#f55376" d="M34,42l-20,0c-4.4,0-8-3.6-8-8l0-20c0-4.4,3.6-8,8-8l20,0c4.4,0,8,3.6,8,8l0,20C42,38.4,38.4,42,34,42z"/><path fill="#fac8d5" d="M24,31c-3.9,0-7-3.1-7-7s3.1-7,7-7s7,3.1,7,7S27.9,31,24,31z M24,19c-2.8,0-5,2.2-5,5s2.2,5,5,5s5-2.2,5-5	S26.8,19,24,19z"/><circle cx="31.5" cy="16.5" r="1.5" fill="#fac8d5"/><path fill="#fac8d5" d="M30,37H18c-3.9,0-7-3.1-7-7V18c0-3.9,3.1-7,7-7h12c3.9,0,7,3.1,7,7v12C37,33.9,33.9,37,30,37z M18,13	c-2.8,0-5,2.2-5,5v12c0,2.8,2.2,5,5,5h12c2.8,0,5-2.2,5-5V18c0-2.8-2.2-5-5-5H18z"/></svg>